<svg xmlns="http://www.w3.org/2000/svg" viewBox="0 0 64 64"><rect width="64" height="64" rx="14" fill="#EAF7F0"/><path d="M21 43c0 5.5 4.9 10 11 10s11-4.5 11-10" fill="none" stroke="#18A058" stroke-width="4" stroke-linecap="round"/><path d="M22 18h20v18c0 5.5-4.5 10-10 10s-10-4.5-10-10V18z" fill="#18A058"/><path d="M44 23h4c3 0 5 2 5 5s-2 5-5 5h-4" fill="none" stroke="#18A058" stroke-width="4" stroke-linecap="round"/><path d="M20 14h24" stroke="#18A058" stroke-width="4" stroke-linecap="round"/><path d="M29 9c-2 2 2 3 0 5M36 9c-2 2 2 3 0 5" fill="none" stroke="#18A058" stroke-width="3" stroke-linecap="round"/><text x="32" y="34" text-anchor="middle" font-family="Arial, sans-serif" font-size="18" font-weight="700" fill="white">J</text></svg>